Coordinates
version=1
nRows=22
nColumns=24
inDegrees=yes

Units are S.I. units (second, meters, Newtons, ...)
Angles are in degrees.

endheader
time	pelvis_tilt	pelvis_list	pelvis_rotation	pelvis_tx	pelvis_ty	pelvis_tz	hip_flexion_r	hip_adduction_r	hip_rotation_r	knee_angle_r	ankle_angle_r	subtalar_angle_r	mtp_angle_r	hip_flexion_l	hip_adduction_l	hip_rotation_l	knee_angle_l	ankle_angle_l	subtalar_angle_l	mtp_angle_l	lumbar_extension	lumbar_bending	lumbar_rotation
      3.65000000	      0.75944460	      6.51399648	     -2.32124075	     -0.40439128	      0.93625940	      0.26099669	     24.90272763	     -6.45618428	     -0.37066100	    -69.86509748	      6.36276826	    -14.60625977	      0.00000000	     11.71138127	     14.29368470	      7.03926495	    -23.69504586	     16.56028876	    -18.99849310	      0.00000000	    -11.37273478	     -9.09473255	     -7.09939074
      3.65500000	      0.81530801	      6.20657995	     -2.09071003	     -0.39737351	      0.93778325	      0.26094682	     25.32260328	     -6.11072612	     -0.45690351	    -68.72289488	      6.75789809	    -14.25257951	      0.00000000	     10.74726463	     14.07420298	      7.85338507	    -23.05618757	     16.40586501	    -19.54451042	      0.00000000	    -11.42558712	     -8.67866258	     -7.27553323
      3.66000000	      0.85210750	      5.90688625	     -1.85329915	     -0.39038135	      0.93918433	      0.26087749	     25.73004399	     -5.77389453	     -0.53733814	    -67.49436105	      7.11696545	    -13.98197541	      0.00000000	      9.81463164	     13.84677984	      8.64721009	    -22.42340140	     16.25798650	    -20.07499502	      0.00000000	    -11.45912561	     -8.26859543	     -7.45587153
      3.66500000	      0.87307492	      5.62045139	     -1.61031542	     -0.38341784	      0.94046488	      0.26081990	     26.12261876	     -5.44655146	     -0.60105463	    -66.18175279	      7.43761699	    -13.79400025	      0.00000000	      8.91183028	     13.61538598	      9.42064149	    -21.79904112	     16.11473422	    -20.58358183	      0.00000000	    -11.47710129	     -7.87749928	     -7.64779021
      3.67000000	      0.87970287	      5.34579094	     -1.35895349	     -0.37647513	      0.94162205	      0.26075247	     26.49615535	     -5.13181201	     -0.65163166	    -64.78463014	      7.72340133	    -13.68953592	      0.00000000	      8.03695466	     13.38092983	     10.16834052	    -21.18315696	     15.98028808	    -21.07561424	      0.00000000	    -11.48059027	     -7.49976589	     -7.84834407
      3.67500000	      0.87471006	      5.08849442	     -1.10871892	     -0.36955339	      0.94265482	      0.26068930	     26.85117661	     -4.83021331	     -0.67078453	    -63.30741693	      7.97189113	    -13.65803217	      0.00000000	      7.18743003	     13.14879308	     10.88724898	    -20.57489393	     15.85934406	    -21.54260009	      0.00000000	    -11.47349594	     -7.14415558	     -8.05352238
      3.68000000	      0.85545244	      4.84631877	     -0.85904544	     -0.36264361	      0.94355366	      0.26063977	     27.19059401	     -4.53847952	     -0.65635054	    -61.75463614	      8.18456680	    -13.69955659	      0.00000000	      6.36590301	     12.91646432	     11.57463056	    -19.97731287	     15.75696345	    -21.97885497	      0.00000000	    -11.45237758	     -6.80868392	     -8.26504346
      3.68500000	      0.83515495	      4.62604744	     -0.60812175	     -0.35575316	      0.94433256	      0.26057229	     27.50048765	     -4.27265491	     -0.61413483	    -60.12683888	      8.35529444	    -13.80812190	      0.00000000	      5.56048851	     12.69692384	     12.24034468	    -19.39346393	     15.66537254	    -22.40115243	      0.00000000	    -11.43097126	     -6.49450257	     -8.48570709
      3.69000000	      0.80564114	      4.42547397	     -0.36361143	     -0.34886516	      0.94497929	      0.26053141	     27.79079974	     -4.02152725	     -0.52895160	    -58.43072754	      8.49225232	    -13.96652351	      0.00000000	      4.77763317	     12.48362831	     12.87323399	    -18.82282068	     15.59284455	    -22.79466778	      0.00000000	    -11.40220052	     -6.20963217	     -8.70599949
      3.69500000	      0.77679338	      4.24525704	     -0.12358012	     -0.34198059	      0.94550046	      0.26048227	     28.05092071	     -3.79319885	     -0.40824378	    -56.66748049	      8.59887938	    -14.17294052	      0.00000000	      4.00360699	     12.28229964	     13.48781518	    -18.26085693	     15.53509080	    -23.17657151	      0.00000000	    -11.37152368	     -5.94341003	     -8.93168040
      3.70000000	      0.73909979	      4.08480383	      0.11303774	     -0.33510431	      0.94589138	      0.26047080	     28.29168949	     -3.58457593	     -0.25350269	    -54.84111270	      8.66037011	    -14.41990357	      0.00000000	      3.25153189	     12.08837972	     14.07309142	    -17.71201485	     15.49920587	    -23.52961239	      0.00000000	    -11.33826117	     -5.71075509	     -9.15790065
      3.70500000	      0.65099443	      3.92909028	      0.32488563	     -0.32818586	      0.94607061	      0.26048086	     28.56088525	     -3.38456952	     -0.07444993	    -52.95895422	      8.72392925	    -14.65997722	      0.00000000	      2.57147413	     11.88638940	     14.55191859	    -17.18386247	     15.54104104	    -23.80756670	      0.00000000	    -11.23265807	     -5.48531817	     -9.31434535
      3.71000000	      0.67784082	      3.83004251	      0.57193477	     -0.32135208	      0.94631228	      0.26048286	     28.67326078	     -3.24971519	      0.15039500	    -51.01841760	      8.71645917	    -14.96161327	      0.00000000	      1.75595060	     11.74201735	     15.19774035	    -16.64049622	     15.47221840	    -24.20080357	      0.00000000	    -11.29800308	     -5.32563228	     -9.62719204
      3.71500000	      0.63248682	      3.73226794	      0.77619641	     -0.31445013	      0.94632085	      0.26053240	     28.83824886	     -3.11901907	      0.39500143	    -49.02565148	      8.71269574	    -15.22192506	      0.00000000	      1.03952102	     11.58722714	     15.71660245	    -16.12845640	     15.49137968	    -24.50436681	      0.00000000	    -11.25677206	     -5.17562394	     -9.84734665
      3.72000000	      0.54458990	      3.63896331	      0.97483784	     -0.30753004	      0.94614020	      0.26058750	     29.02025044	     -3.00926587	      0.63730792	    -46.98387037	      8.72151062	    -15.44514505	      0.00000000	      0.38602546	     11.42842010	     16.15762423	    -15.63845843	     15.57752722	    -24.74151248	      0.00000000	    -11.16135131	     -5.02560471	    -10.01679044
      3.72500000	      0.58603432	      3.60702632	      1.19801414	     -0.30068717	      0.94603973	      0.26063473	     29.03319351	     -2.97752879	      0.90579063	    -44.89924592	      8.70735430	    -15.66174483	      0.00000000	     -0.41782820	     11.32903473	     16.72864907	    -15.13198551	     15.55630208	    -25.09428926	      0.00000000	    -11.25635995	     -4.94763214	    -10.31376083
      3.73000000	      0.47183250	      3.55457635	      1.38153701	     -0.29374974	      0.94559550	      0.26073427	     29.19260196	     -2.93760402	      1.15631269	    -42.78145935	      8.71860341	    -15.76306931	      0.00000000	     -1.02326410	     11.20037392	     17.11013895	    -14.67283372	     15.69201219	    -25.27891991	      0.00000000	    -11.14027072	     -4.85595205	    -10.46994763
      3.73500000	      0.45912730	      3.53191360	      1.58910706	     -0.28684370	      0.94521596	      0.26082596	     29.20622053	     -2.95534709	      1.36741137	    -40.61314520	      8.70071088	    -15.86256022	      0.00000000	     -1.74481347	     11.09516971	     17.58447593	    -14.20918874	     15.76481144	    -25.52379496	      0.00000000	    -11.16354029	     -4.79610913	    -10.72308277
      3.74000000	      0.44946635	      3.54041984	      1.77732753	     -0.27993007	      0.94472036	      0.26092376	     29.20265024	     -3.02556986	      1.55369603	    -38.43576227	      8.74575467	    -15.80509952	      0.00000000	     -2.46239744	     11.01928947	     18.01388828	    -13.75375529	     15.84956142	    -25.76120037	      0.00000000	    -11.19288347	     -4.76765625	    -10.95138880
      3.74500000	      0.42221464	      3.56976370	      1.97117651	     -0.27302818	      0.94410577	      0.26105418	     29.19930969	     -3.13852072	      1.69641096	    -36.24719764	      8.82148461	    -15.63588775	      0.00000000	     -3.14340969	     10.95895378	     18.39731140	    -13.32768025	     15.96060306	    -25.95797782	      0.00000000	    -11.21646906	     -4.77568169	    -11.17432460
      3.75000000	      0.40896008	      3.62257310	      2.15595873	     -0.26610049	      0.94341686	      0.26116989	     29.16943399	     -3.30127441	      1.76527160	    -34.06162938	      8.92838111	    -15.34250410	      0.00000000	     -3.83684915	     10.91949413	     18.75149297	    -12.90790411	     16.08931318	    -26.13119868	      0.00000000	    -11.25080481	     -4.79902822	    -11.40744714
      3.75500000	      0.40050981	      3.69617541	      2.34553619	     -0.25917294	      0.94265827	      0.26133272	     29.12415683	     -3.50522450	      1.75028402	    -31.88854777	      9.07388259	    -14.92065792	      0.00000000	     -4.52768314	     10.89315343	     19.06813957	    -12.50006389	     16.21684840	    -26.27764017	      0.00000000	    -11.30960143	     -4.86243305	    -11.63825427
